<!-- Generated by IcoMoon.io -->
<svg version="1.1" xmlns="http://www.w3.org/2000/svg" width="1024" height="1024" viewBox="0 0 1024 1024">
<title></title>
<g id="icomoon-ignore">
</g>
<path fill="#fff" d="M512-1.088c-282.912 0-513.12 230.144-513.12 513.088s230.208 513.088 513.12 513.088 513.12-230.144 513.12-513.088-230.208-513.088-513.12-513.088zM512 990.912c-264.064 0-478.88-214.848-478.88-478.912s214.816-478.912 478.88-478.912 478.88 214.848 478.88 478.912-214.816 478.912-478.88 478.912zM793.408 353.472c3.52-6.528 6.464-13.408 8.736-20.576 2.144-6.784-0.064-14.144-5.632-18.592-5.536-4.416-13.28-4.928-19.36-1.344-16.416 9.76-34.080 16.96-52.672 21.536-22.336-20.192-51.68-31.584-81.984-31.584-67.36 0-122.144 54.784-122.144 122.080 0 1.696 0.032 3.36 0.096 5.056-71.52-8.928-137.536-45.28-183.52-101.696-3.52-4.352-8.96-6.624-14.592-6.24-5.6 0.448-10.624 3.584-13.44 8.48-10.816 18.56-16.544 39.776-16.544 61.408 0 20.48 5.088 40.192 14.432 57.664-2.368 0.384-4.704 1.248-6.848 2.496-5.216 3.104-8.448 9.344-8.448 15.392 0 36.32 16.16 69.664 42.208 92.32-0.384 0.352-0.736 0.736-1.12 1.12-4 4.544-5.312 10.816-3.456 16.576 11.232 35.008 37.248 62.272 69.888 75.68-33.312 16.48-72 22.912-108.992 18.528-7.808-0.704-15.392 3.712-18.112 11.264-2.656 7.488 0.16 15.84 6.88 20.16 50.944 32.64 109.792 49.888 170.208 49.888 197.76 0 315.968-160.64 315.968-315.936 0-1.76 0-3.488-0.032-5.248 19.104-14.912 35.68-32.736 49.312-53.12 4.224-6.304 3.776-14.688-1.12-20.512-4.832-5.728-12.8-7.712-19.712-4.8zM737.568 409.632c-4.704 3.392-7.392 8.928-7.104 14.752 0.192 4.224 0.288 8.512 0.288 12.736 0 138.496-105.376 281.76-281.728 281.76-31.648 0-62.848-5.312-92.384-15.616 35.36-6.752 68.512-21.824 97.44-44.48 5.696-4.48 7.968-12.032 5.664-18.912-2.304-6.848-8.672-11.52-15.904-11.648-28.512-0.576-54.368-14.752-70.208-37.184 8.096-0.544 16.032-1.888 23.744-3.968 7.648-2.080 12.832-9.152 12.576-17.088-0.256-7.904-5.952-14.624-13.728-16.192-32.096-6.432-57.28-30.176-66.592-60.96 8.512 2.144 17.248 3.392 25.984 3.68 7.52-0.032 14.496-4.64 16.832-11.872s-0.416-15.2-6.784-19.424c-24.48-16.384-39.104-43.712-39.104-73.184 0-7.136 0.864-14.176 2.528-21.056 55.392 56.8 130.56 91.104 210.176 95.104 5.632 0.032 10.56-1.984 13.984-6.112s4.736-9.6 3.52-14.848c-1.504-6.496-2.272-13.248-2.272-20.064 0-48.48 39.456-87.904 87.936-87.904 24.224 0 47.616 10.112 64.16 27.776 4.032 4.32 9.984 6.208 15.808 5.088 5.28-1.056 10.496-2.272 15.648-3.68-2.304 1.728-4.704 3.328-7.232 4.832-6.912 4.128-9.984 12.576-7.392 20.192s10.368 12.608 18.208 11.424c1.952-0.224 3.872-0.48 5.824-0.736-3.168 2.624-6.496 5.152-9.888 7.584z"></path>
</svg>
